<svg width="183" height="183" viewBox="0 0 183 183" fill="none" xmlns="http://www.w3.org/2000/svg">
<g filter="url(#filter0_d_264_6236)">
<path fill-rule="evenodd" clip-rule="evenodd" d="M91.5 175C139.825 175 179 135.825 179 87.5C179 39.1751 139.825 0 91.5 0C43.1751 0 4 39.1751 4 87.5C4 135.825 43.1751 175 91.5 175ZM25.5114 48.4545V127H53.892C60.0795 127 65.1037 126.08 68.9645 124.239C72.8253 122.398 75.6506 119.905 77.4403 116.76C79.2301 113.615 80.125 110.074 80.125 106.136C80.125 101.994 79.3068 98.4915 77.6705 95.6278C76.0341 92.7642 74.0014 90.5653 71.5724 89.0312C69.1435 87.4972 66.7273 86.6534 64.3239 86.5V85.733C66.5739 85.1193 68.6577 84.1733 70.5753 82.8949C72.5185 81.6165 74.0781 79.8778 75.2543 77.679C76.456 75.4801 77.0568 72.6932 77.0568 69.3182C77.0568 65.4829 76.1875 61.9929 74.4489 58.848C72.7102 55.6776 70.0639 53.1591 66.5099 51.2926C62.956 49.4006 58.4432 48.4545 52.9716 48.4545H25.5114ZM53.892 118.562H35.0227V91.2557H54.3523C57.7784 91.2557 60.7443 91.946 63.25 93.3267C65.7557 94.6818 67.6861 96.4972 69.0412 98.7727C70.3963 101.023 71.0739 103.477 71.0739 106.136C71.0739 109.588 69.7571 112.528 67.1236 114.957C64.5156 117.361 60.1051 118.562 53.892 118.562ZM52.6648 82.9716H35.0227V56.892H52.9716C58.1875 56.892 61.9972 58.1065 64.4006 60.5355C66.804 62.9389 68.0057 65.8665 68.0057 69.3182C68.0057 72.0795 67.3153 74.483 65.9347 76.5284C64.5795 78.5739 62.7386 80.1591 60.4119 81.2841C58.1108 82.4091 55.5284 82.9716 52.6648 82.9716ZM158.038 127V48.4545H148.68V110.278H147.913L104.958 48.4545H95.7536V127H105.265V65.3295H106.032L148.833 127H158.038Z" fill="black"/>
</g>
<defs>
<filter id="filter0_d_264_6236" x="0" y="0" width="183" height="183" filterUnits="userSpaceOnUse" color-interpolation-filters="sRGB">
<feFlood flood-opacity="0" result="BackgroundImageFix"/>
<feColorMatrix in="SourceAlpha" type="matrix" values="0 0 0 0 0 0 0 0 0 0 0 0 0 0 0 0 0 0 127 0" result="hardAlpha"/>
<feOffset dy="4"/>
<feGaussianBlur stdDeviation="2"/>
<feComposite in2="hardAlpha" operator="out"/>
<feColorMatrix type="matrix" values="0 0 0 0 0 0 0 0 0 0 0 0 0 0 0 0 0 0 0.25 0"/>
<feBlend mode="normal" in2="BackgroundImageFix" result="effect1_dropShadow_264_6236"/>
<feBlend mode="normal" in="SourceGraphic" in2="effect1_dropShadow_264_6236" result="shape"/>
</filter>
</defs>
</svg>
