<svg width="116" height="116" viewBox="0 0 116 116" fill="none" xmlns="http://www.w3.org/2000/svg">
<path fill-rule="evenodd" clip-rule="evenodd" d="M116 0H0V116H116V0ZM18 18H98V98H18V18ZM13 13H18H98H103V18V98V103H98H18H13V98V18V13ZM50.576 56.176H56.784V76.912C56.272 77.0827 55.5253 77.2747 54.544 77.488C53.6053 77.7013 52.496 77.9147 51.216 78.128C49.9787 78.3413 48.6133 78.512 47.12 78.64C45.6267 78.8107 44.112 78.896 42.576 78.896C39.4613 78.896 36.624 78.384 34.064 77.36C31.504 76.336 29.3067 74.8427 27.472 72.88C25.6373 70.9173 24.208 68.5067 23.184 65.648C22.2027 62.7893 21.712 59.504 21.712 55.792C21.712 52.08 22.2667 48.7947 23.376 45.936C24.528 43.0347 26.064 40.6027 27.984 38.64C29.904 36.6773 32.144 35.184 34.704 34.16C37.3067 33.136 40.08 32.624 43.024 32.624C45.0293 32.624 46.8 32.752 48.336 33.008C49.9147 33.264 51.2587 33.5627 52.368 33.904C53.4773 34.2453 54.3733 34.5867 55.056 34.928C55.7813 35.2693 56.272 35.5253 56.528 35.696L54.544 40.88C53.3067 40.0693 51.664 39.408 49.616 38.896C47.568 38.3413 45.4773 38.064 43.344 38.064C41.0827 38.064 39.0133 38.4693 37.136 39.28C35.3013 40.0907 33.7227 41.264 32.4 42.8C31.12 44.336 30.1173 46.2133 29.392 48.432C28.6667 50.608 28.304 53.0613 28.304 55.792C28.304 58.4373 28.6027 60.848 29.2 63.024C29.84 65.2 30.7787 67.0773 32.016 68.656C33.296 70.192 34.8533 71.3867 36.688 72.24C38.5653 73.0933 40.7627 73.52 43.28 73.52C45.072 73.52 46.5867 73.4347 47.824 73.264C49.104 73.0507 50.0213 72.8587 50.576 72.688V56.176ZM66.504 78V33.648H93.576V38.96H72.712V52.144H91.272V57.328H72.712V72.688H95.176V78H66.504ZM33.484 90.226H32.126V93.838C32.0047 93.8753 31.804 93.9173 31.524 93.964C31.2533 94.0013 30.922 94.02 30.53 94.02C29.9793 94.02 29.4987 93.9267 29.088 93.74C28.6867 93.5533 28.346 93.292 28.066 92.956C27.7953 92.6107 27.59 92.2 27.45 91.724C27.3193 91.248 27.254 90.7207 27.254 90.142C27.254 89.5447 27.3333 89.008 27.492 88.532C27.6507 88.0467 27.87 87.636 28.15 87.3C28.4393 86.964 28.7847 86.7073 29.186 86.53C29.5967 86.3527 30.0493 86.264 30.544 86.264C31.0107 86.264 31.468 86.3247 31.916 86.446C32.364 86.558 32.7233 86.7027 32.994 86.88L33.428 85.746C33.372 85.7087 33.2647 85.6527 33.106 85.578C32.9567 85.5033 32.7607 85.4287 32.518 85.354C32.2753 85.2793 31.9813 85.214 31.636 85.158C31.3 85.102 30.9127 85.074 30.474 85.074C29.83 85.074 29.2233 85.186 28.654 85.41C28.094 85.634 27.604 85.9607 27.184 86.39C26.764 86.8193 26.428 87.3513 26.176 87.986C25.9333 88.6113 25.812 89.33 25.812 90.142C25.812 90.954 25.9193 91.6727 26.134 92.298C26.358 92.9233 26.6707 93.4507 27.072 93.88C27.4733 94.3093 27.954 94.636 28.514 94.86C29.074 95.084 29.6947 95.196 30.376 95.196C30.712 95.196 31.0433 95.1773 31.37 95.14C31.6967 95.112 31.9953 95.0747 32.266 95.028C32.546 94.9813 32.7887 94.9347 32.994 94.888C33.2087 94.8413 33.372 94.7993 33.484 94.762V90.226ZM36.0023 94.622C36.3382 94.9487 36.9076 95.1213 37.7103 95.14L37.8923 94.048C37.6869 94.02 37.5143 93.9873 37.3742 93.95C37.2342 93.9033 37.1222 93.838 37.0382 93.754C36.9543 93.67 36.8936 93.558 36.8563 93.418C36.8189 93.278 36.8003 93.1007 36.8003 92.886V84.136L35.4982 84.36V93.096C35.4982 93.7867 35.6662 94.2953 36.0023 94.622ZM45.5284 92.928C45.6964 92.4613 45.7804 91.9387 45.7804 91.36C45.7804 90.7907 45.6964 90.2727 45.5284 89.806C45.3604 89.33 45.1224 88.924 44.8144 88.588C44.5157 88.252 44.1564 87.9953 43.7364 87.818C43.3164 87.6313 42.859 87.538 42.3644 87.538C41.8697 87.538 41.4124 87.6313 40.9924 87.818C40.5724 87.9953 40.2084 88.252 39.9004 88.588C39.6017 88.924 39.3684 89.33 39.2004 89.806C39.0324 90.2727 38.9484 90.7907 38.9484 91.36C38.9484 91.9387 39.0324 92.4613 39.2004 92.928C39.3684 93.3947 39.6017 93.796 39.9004 94.132C40.2084 94.468 40.5724 94.7293 40.9924 94.916C41.4124 95.0933 41.8697 95.182 42.3644 95.182C42.859 95.182 43.3164 95.0933 43.7364 94.916C44.1564 94.7293 44.5157 94.468 44.8144 94.132C45.1224 93.796 45.3604 93.3947 45.5284 92.928ZM43.8624 89.414C44.2357 89.89 44.4224 90.5387 44.4224 91.36C44.4224 92.1813 44.2357 92.8347 43.8624 93.32C43.4984 93.796 42.999 94.034 42.3644 94.034C41.7297 94.034 41.2257 93.796 40.8524 93.32C40.4884 92.8347 40.3064 92.1813 40.3064 91.36C40.3064 90.5387 40.4884 89.89 40.8524 89.414C41.2257 88.9287 41.7297 88.686 42.3644 88.686C42.999 88.686 43.4984 88.9287 43.8624 89.414ZM49.6282 87.72C49.3109 87.832 49.0729 87.9393 48.9142 88.042V84.136L47.6122 84.36V94.79C47.9109 94.874 48.2935 94.958 48.7602 95.042C49.2269 95.126 49.7635 95.168 50.3702 95.168C50.9302 95.168 51.4342 95.0793 51.8822 94.902C52.3302 94.7247 52.7129 94.4727 53.0302 94.146C53.3475 93.8193 53.5902 93.4227 53.7582 92.956C53.9355 92.48 54.0242 91.948 54.0242 91.36C54.0242 90.8 53.9495 90.2867 53.8002 89.82C53.6602 89.3533 53.4502 88.952 53.1702 88.616C52.8902 88.28 52.5449 88.0187 52.1342 87.832C51.7329 87.6453 51.2709 87.552 50.7482 87.552C50.3282 87.552 49.9549 87.608 49.6282 87.72ZM49.4602 93.978C49.2269 93.9407 49.0449 93.9033 48.9142 93.866V89.26C49.0729 89.1293 49.3015 89.0033 49.6002 88.882C49.8989 88.7607 50.2255 88.7 50.5802 88.7C50.9535 88.7 51.2709 88.77 51.5322 88.91C51.8029 89.0407 52.0222 89.2273 52.1902 89.47C52.3582 89.7033 52.4795 89.9833 52.5542 90.31C52.6289 90.6367 52.6662 90.9867 52.6662 91.36C52.6662 92.2093 52.4562 92.8673 52.0362 93.334C51.6162 93.7913 51.0562 94.02 50.3562 94.02C50.0015 94.02 49.7029 94.006 49.4602 93.978ZM59.1323 94.048C58.899 94.0573 58.6283 94.062 58.3203 94.062C57.807 94.062 57.401 93.9733 57.1023 93.796C56.8037 93.6093 56.6543 93.2827 56.6543 92.816C56.6543 92.564 56.715 92.3633 56.8363 92.214C56.9577 92.0553 57.107 91.934 57.2843 91.85C57.471 91.7567 57.6717 91.696 57.8863 91.668C58.1103 91.64 58.3203 91.626 58.5163 91.626C58.815 91.626 59.067 91.6447 59.2723 91.682C59.487 91.71 59.641 91.7473 59.7343 91.794V93.964C59.5757 94.0013 59.375 94.0293 59.1323 94.048ZM59.5243 87.748C59.1697 87.608 58.731 87.538 58.2083 87.538C57.751 87.538 57.3263 87.5753 56.9343 87.65C56.5423 87.7153 56.2623 87.7853 56.0943 87.86L56.2483 88.938C56.407 88.8727 56.645 88.812 56.9623 88.756C57.289 88.6907 57.667 88.658 58.0963 88.658C58.4323 88.658 58.703 88.7093 58.9083 88.812C59.123 88.9053 59.291 89.036 59.4123 89.204C59.5337 89.3627 59.6177 89.5493 59.6643 89.764C59.711 89.9693 59.7343 90.1793 59.7343 90.394V90.758C59.697 90.7487 59.6317 90.7347 59.5383 90.716C59.445 90.6973 59.333 90.6787 59.2023 90.66C59.081 90.632 58.9503 90.6133 58.8103 90.604C58.6703 90.5853 58.535 90.576 58.4043 90.576C57.9937 90.576 57.6017 90.618 57.2283 90.702C56.855 90.786 56.5283 90.9167 56.2483 91.094C55.9683 91.2713 55.7443 91.5047 55.5763 91.794C55.4177 92.0833 55.3383 92.4287 55.3383 92.83C55.3383 93.25 55.4083 93.6093 55.5483 93.908C55.6883 94.2067 55.8843 94.4493 56.1363 94.636C56.3883 94.8133 56.687 94.944 57.0323 95.028C57.3777 95.112 57.7557 95.154 58.1663 95.154C58.4557 95.154 58.745 95.14 59.0343 95.112C59.333 95.0933 59.6083 95.07 59.8603 95.042C60.1123 95.014 60.3363 94.986 60.5323 94.958C60.7377 94.9207 60.8963 94.8927 61.0083 94.874V90.324C61.0083 89.9133 60.9617 89.54 60.8683 89.204C60.775 88.8587 60.6163 88.5647 60.3923 88.322C60.1777 88.07 59.8883 87.8787 59.5243 87.748ZM63.6468 94.622C63.9828 94.9487 64.5521 95.1213 65.3548 95.14L65.5368 94.048C65.3315 94.02 65.1588 93.9873 65.0188 93.95C64.8788 93.9033 64.7668 93.838 64.6828 93.754C64.5988 93.67 64.5381 93.558 64.5008 93.418C64.4634 93.278 64.4448 93.1007 64.4448 92.886V84.136L63.1428 84.36V93.096C63.1428 93.7867 63.3108 94.2953 63.6468 94.622ZM70.3231 85.298V95H76.5951V93.838H71.6811V90.478H75.7411V89.344H71.6811V86.46H76.2451V85.298H70.3231ZM79.4272 87.692C78.9325 87.776 78.5359 87.8553 78.2372 87.93V95H79.5392V88.854C79.5859 88.8447 79.6605 88.8307 79.7632 88.812C79.8752 88.7933 79.9965 88.7793 80.1272 88.77C80.2672 88.7513 80.4119 88.7373 80.5612 88.728C80.7105 88.7187 80.8552 88.714 80.9952 88.714C81.3405 88.714 81.6299 88.7607 81.8632 88.854C82.0965 88.938 82.2832 89.078 82.4232 89.274C82.5632 89.47 82.6612 89.7267 82.7172 90.044C82.7825 90.3613 82.8152 90.744 82.8152 91.192V95H84.1172V90.912C84.1172 90.4173 84.0705 89.9647 83.9772 89.554C83.8839 89.1433 83.7205 88.7933 83.4872 88.504C83.2632 88.2053 82.9599 87.9767 82.5772 87.818C82.1945 87.65 81.7139 87.566 81.1352 87.566C80.4912 87.566 79.9219 87.608 79.4272 87.692ZM90.2523 87.72H87.4942V85.466L86.1923 85.69V92.186C86.1923 92.6713 86.2296 93.1007 86.3043 93.474C86.3883 93.838 86.5283 94.146 86.7243 94.398C86.9202 94.65 87.1769 94.8413 87.4942 94.972C87.8209 95.0933 88.2316 95.154 88.7262 95.154C89.1462 95.154 89.5196 95.1027 89.8463 95C90.1729 94.9067 90.4016 94.8273 90.5322 94.762L90.2803 93.684C90.1869 93.7213 90.0189 93.7867 89.7763 93.88C89.5429 93.964 89.2302 94.006 88.8382 94.006C88.6143 94.006 88.4183 93.978 88.2503 93.922C88.0823 93.866 87.9423 93.7727 87.8303 93.642C87.7182 93.502 87.6342 93.3153 87.5782 93.082C87.5222 92.8393 87.4942 92.536 87.4942 92.172V88.812H90.2523V87.72Z" fill="black"/>
</svg>
