<svg width="108" height="49" viewBox="0 0 108 49" fill="none" xmlns="http://www.w3.org/2000/svg">
<path fill-rule="evenodd" clip-rule="evenodd" d="M104.28 0H94.968C94.52 0 94.136 0.0639992 93.816 0.191998C93.496 0.319998 93.336 0.863997 93.336 1.824V17.856C93.336 18.88 93.176 19.616 92.856 20.064C92.536 20.448 91.704 20.64 90.36 20.64H85.176V27.84H100.152C102.712 27.84 104.728 27.264 106.2 26.112C107.224 25.216 107.736 22.336 107.736 17.472V3.936C107.736 1.312 106.584 0 104.28 0ZM73.752 48H82.296V20.64H73.56C71.32 20.64 69.816 21.216 69.048 22.368C68.28 23.52 67.896 25.088 67.896 27.072V42.144C67.896 46.048 69.848 48 73.752 48ZM107.736 42.72V32.736H93.336V37.92C93.336 39.008 93.176 39.776 92.856 40.224C92.536 40.608 91.704 40.8 90.36 40.8H85.176V48H102.456C105.976 48 107.736 46.24 107.736 42.72ZM85.464 7.2H90.648V0H73.368C69.848 0 68.088 1.76 68.088 5.28V15.264H82.488V10.08C82.488 8.992 82.648 8.256 82.968 7.872C83.288 7.424 84.12 7.2 85.464 7.2ZM7.704 47.424C9.15467 47.9787 10.744 48.256 12.472 48.256C14.0507 48.256 15.576 48.0213 17.048 47.552C18.5413 47.0613 19.8427 46.3467 20.952 45.408V36.672H17.88V43.9615C17.3001 44.343 16.6921 44.6438 16.056 44.864C14.968 45.2267 13.8267 45.408 12.632 45.408C11.352 45.408 10.168 45.1947 9.08 44.768C7.992 44.3413 7.04267 43.744 6.232 42.976C5.44267 42.1867 4.824 41.2693 4.376 40.224C3.94933 39.1573 3.736 38.016 3.736 36.8C3.736 35.5627 3.94933 34.4213 4.376 33.376C4.824 32.3093 5.44267 31.392 6.232 30.624C7.04267 29.856 7.992 29.2587 9.08 28.832C10.1893 28.4053 11.384 28.192 12.664 28.192C13.9227 28.192 15.0853 28.4053 16.152 28.832C17.24 29.2373 18.2427 29.888 19.16 30.784L21.144 28.8C20.12 27.648 18.872 26.784 17.4 26.208C15.928 25.632 14.3067 25.344 12.536 25.344C10.7867 25.344 9.18667 25.632 7.736 26.208C6.28533 26.7627 5.016 27.5627 3.928 28.608C2.86133 29.632 2.02933 30.8373 1.432 32.224C0.834667 33.6107 0.536 35.136 0.536 36.8C0.536 38.464 0.834667 39.9893 1.432 41.376C2.02933 42.7627 2.86133 43.9787 3.928 45.024C4.99467 46.048 6.25333 46.848 7.704 47.424ZM29.3827 47.072C30.7694 47.8187 32.3694 48.192 34.1828 48.192C35.5908 48.192 36.8601 47.9573 37.9907 47.488C39.1427 47.0187 40.1027 46.336 40.8708 45.44L39.1748 43.456C38.5561 44.1387 37.8307 44.6507 36.9987 44.992C36.1881 45.3333 35.2814 45.504 34.2788 45.504C33.0628 45.504 31.9854 45.2587 31.0468 44.768C30.1081 44.2773 29.3721 43.5947 28.8388 42.72C28.4608 42.0586 28.2224 41.3333 28.1234 40.544H41.8948C41.9161 40.3947 41.9268 40.2347 41.9268 40.064C41.9481 39.8933 41.9588 39.744 41.9588 39.616C41.9588 37.8667 41.5961 36.3413 40.8708 35.04C40.1668 33.7173 39.1854 32.6933 37.9268 31.968C36.6681 31.2427 35.2174 30.88 33.5748 30.88C31.9534 30.88 30.4921 31.2533 29.1908 32C27.9107 32.7253 26.8974 33.7387 26.1507 35.04C25.4254 36.3413 25.0627 37.8347 25.0627 39.52C25.0627 41.2053 25.4361 42.6987 26.1828 44C26.9508 45.3013 28.0174 46.3253 29.3827 47.072ZM28.1175 38.336C28.2073 37.5615 28.4263 36.8575 28.7747 36.224C29.2441 35.3493 29.8948 34.6773 30.7267 34.208C31.5588 33.7173 32.5081 33.472 33.5748 33.472C34.6628 33.472 35.6121 33.7173 36.4228 34.208C37.2547 34.6773 37.9054 35.3387 38.3748 36.192C38.7307 36.8392 38.9455 37.5538 39.0193 38.336H28.1175ZM58.9285 31.68C57.8832 31.1467 56.6672 30.88 55.2805 30.88C53.7445 30.88 52.4005 31.1893 51.2485 31.808C50.3889 32.2697 49.6955 32.8679 49.1685 33.6028V31.04H46.2245V48H49.2965V39.264C49.2965 38.0267 49.5098 36.992 49.9365 36.16C50.3845 35.328 51.0138 34.6987 51.8245 34.272C52.6352 33.8453 53.5845 33.632 54.6725 33.632C56.1232 33.632 57.2432 34.048 58.0325 34.88C58.8432 35.712 59.2485 36.9493 59.2485 38.592V48H62.3205V38.24C62.3205 36.576 62.0218 35.2 61.4245 34.112C60.8272 33.024 59.9952 32.2133 58.9285 31.68ZM6.944 21.128C6.09067 21.128 5.27467 21 4.496 20.744C3.71733 20.4773 3.104 20.136 2.656 19.72L3.248 18.472C3.67467 18.8453 4.21867 19.1547 4.88 19.4C5.54133 19.6453 6.22933 19.768 6.944 19.768C7.59467 19.768 8.12267 19.6933 8.528 19.544C8.93333 19.3947 9.232 19.192 9.424 18.936C9.616 18.6693 9.712 18.3707 9.712 18.04C9.712 17.656 9.584 17.3467 9.328 17.112C9.08267 16.8773 8.75733 16.6907 8.352 16.552C7.95733 16.4027 7.52 16.2747 7.04 16.168C6.56 16.0613 6.07467 15.9387 5.584 15.8C5.104 15.6507 4.66133 15.464 4.256 15.24C3.86133 15.016 3.54133 14.7173 3.296 14.344C3.05067 13.96 2.928 13.4693 2.928 12.872C2.928 12.296 3.07733 11.768 3.376 11.288C3.68533 10.7973 4.15467 10.408 4.784 10.12C5.424 9.82133 6.23467 9.672 7.216 9.672C7.86667 9.672 8.512 9.75733 9.152 9.928C9.792 10.0987 10.3467 10.344 10.816 10.664L10.288 11.944C9.808 11.624 9.30133 11.3947 8.768 11.256C8.23467 11.1067 7.71733 11.032 7.216 11.032C6.58667 11.032 6.06933 11.112 5.664 11.272C5.25867 11.432 4.96 11.6453 4.768 11.912C4.58667 12.1787 4.496 12.4773 4.496 12.808C4.496 13.2027 4.61867 13.5173 4.864 13.752C5.12 13.9867 5.44533 14.1733 5.84 14.312C6.24533 14.4507 6.688 14.5787 7.168 14.696C7.648 14.8027 8.128 14.9253 8.608 15.064C9.09867 15.2027 9.54133 15.384 9.936 15.608C10.3413 15.832 10.6667 16.1307 10.912 16.504C11.1573 16.8773 11.28 17.3573 11.28 17.944C11.28 18.5093 11.1253 19.0373 10.816 19.528C10.5067 20.008 10.0267 20.3973 9.376 20.696C8.736 20.984 7.92533 21.128 6.944 21.128ZM16.3055 21.096C15.4522 21.096 14.7908 20.8667 14.3215 20.408C13.8522 19.9493 13.6175 19.2933 13.6175 18.44V13.784H12.1775V12.52H13.6175V10.664H15.1535V12.52H17.5855V13.784H15.1535V18.376C15.1535 18.8347 15.2655 19.1867 15.4895 19.432C15.7242 19.6773 16.0548 19.8 16.4815 19.8C16.9615 19.8 17.3615 19.6667 17.6815 19.4L18.1615 20.504C17.9268 20.7067 17.6442 20.856 17.3135 20.952C16.9935 21.048 16.6575 21.096 16.3055 21.096ZM25.2825 21V19.8876C25.0757 20.1961 24.793 20.4549 24.4345 20.664C23.9225 20.952 23.2772 21.096 22.4985 21.096C21.8692 21.096 21.3145 20.9893 20.8345 20.776C20.3652 20.5627 20.0025 20.2693 19.7465 19.896C19.4905 19.512 19.3625 19.08 19.3625 18.6C19.3625 18.1413 19.4692 17.7253 19.6825 17.352C19.9065 16.9787 20.2638 16.68 20.7545 16.456C21.2558 16.232 21.9278 16.12 22.7705 16.12H25.2025V15.816C25.2025 15.1653 25.0105 14.664 24.6265 14.312C24.2532 13.9493 23.6878 13.768 22.9305 13.768C22.4292 13.768 21.9385 13.8533 21.4585 14.024C20.9785 14.184 20.5732 14.4027 20.2425 14.68L19.6025 13.528C20.0398 13.176 20.5625 12.9093 21.1705 12.728C21.7892 12.536 22.4345 12.44 23.1065 12.44C24.2692 12.44 25.1652 12.7227 25.7945 13.288C26.4238 13.8533 26.7385 14.7173 26.7385 15.88V21H25.2825ZM25.2025 17.224V18.408C25.0105 18.8987 24.6958 19.272 24.2585 19.528C23.8318 19.784 23.3305 19.912 22.7545 19.912C22.1678 19.912 21.7092 19.7893 21.3785 19.544C21.0478 19.288 20.8825 18.952 20.8825 18.536C20.8825 18.1733 21.0158 17.864 21.2825 17.608C21.5492 17.352 22.0665 17.224 22.8345 17.224H25.2025ZM29.581 21V12.52H31.053V13.9415C31.2926 13.5029 31.6393 13.157 32.093 12.904C32.6477 12.5947 33.3303 12.44 34.141 12.44V13.928C34.077 13.9173 34.013 13.912 33.949 13.912H33.789C32.9677 13.912 32.317 14.1573 31.837 14.648C31.357 15.1387 31.117 15.848 31.117 16.776V21H29.581ZM39.2899 21.096C38.4365 21.096 37.7752 20.8667 37.3059 20.408C36.8365 19.9493 36.6019 19.2933 36.6019 18.44V13.784H35.1619V12.52H36.6019V10.664H38.1379V12.52H40.5699V13.784H38.1379V18.376C38.1379 18.8347 38.2499 19.1867 38.4739 19.432C38.7085 19.6773 39.0392 19.8 39.4659 19.8C39.9459 19.8 40.3459 19.6667 40.6659 19.4L41.1459 20.504C40.9112 20.7067 40.6285 20.856 40.2979 20.952C39.9779 21.048 39.6419 21.096 39.2899 21.096ZM48.2929 5.29289L41.9289 11.6569C41.5384 12.0474 41.5384 12.6805 41.9289 13.0711C42.3195 13.4616 42.9526 13.4616 43.3431 13.0711L48 8.41421V21H50V8.41421L54.6569 13.0711C55.0474 13.4616 55.6805 13.4616 56.0711 13.0711C56.4616 12.6805 56.4616 12.0474 56.0711 11.6569L49.7071 5.29289C49.3166 4.90237 48.6834 4.90237 48.2929 5.29289Z" fill="black"/>
</svg>
