<svg width="88" height="69" viewBox="0 0 88 69" fill="none" xmlns="http://www.w3.org/2000/svg">
<path d="M52.4375 28.6875L54.875 27C55.4583 26.5833 56.1875 26.0417 57.0625 25.375C57.9792 24.6667 58.4375 23.9792 58.4375 23.3125C58.4375 22.4375 57.75 22 56.375 22V0.125H87.125V22C86 22 84.7292 22.2708 83.3125 22.8125C81.9375 23.3125 80.5417 23.9375 79.125 24.6875C77.7083 25.3958 76.2917 26.1875 74.875 27.0625C73.4583 27.8958 72.2083 28.6875 71.125 29.4375L62.4375 35.1875L71.75 41.25C72.625 41.75 73.5417 42.3542 74.5 43.0625C75.5 43.7292 76.6042 44.3542 77.8125 44.9375C79.0625 45.5208 80.5 46.0417 82.125 46.5C83.75 46.9167 85.625 47.125 87.75 47.125V69H34.625V47.125C35.75 47.125 36.6875 46.8958 37.4375 46.4375C38.2292 45.9375 38.625 45.3125 38.625 44.5625C38.625 43.9375 38.3333 43.3125 37.75 42.6875C37.2083 42.0625 36.6042 41.5417 35.9375 41.125L34.5 40.1875L33.25 41.125C32.375 41.625 31.375 42.3542 30.25 43.3125C29.1667 44.2292 28.625 45.0208 28.625 45.6875C28.625 46.6458 29.2708 47.125 30.5625 47.125V69H0.4375V47.125C1.39583 47.125 2.5 46.8542 3.75 46.3125C5.04167 45.7292 6.375 45.0625 7.75 44.3125C9.125 43.5208 10.4792 42.6875 11.8125 41.8125C13.1875 40.8958 14.4375 40.0625 15.5625 39.3125L24.375 33.5625L15.9375 27.9375C14.2292 26.7292 12.0625 25.4375 9.4375 24.0625C6.85417 22.6875 4.08333 22 1.125 22V0.125H52.3125V22C51.3542 22 50.5208 22.2292 49.8125 22.6875C49.1458 23.1042 48.8125 23.6458 48.8125 24.3125C48.8125 25.0208 49.0417 25.6458 49.5 26.1875C50 26.7292 50.6667 27.3542 51.5 28.0625L52.4375 28.6875Z" fill="black"/>
</svg>
